<?xml version="1.0" standalone="no"?>
<!DOCTYPE svg PUBLIC "-//W3C//DTD SVG 20010904//EN"
 "http://www.w3.org/TR/2001/REC-SVG-20010904/DTD/svg10.dtd">
<svg version="1.0" xmlns="http://www.w3.org/2000/svg"
 width="1024.000000pt" height="1024.000000pt" viewBox="0 0 1024.000000 1024.000000"
 preserveAspectRatio="xMidYMid meet">

<g transform="translate(0.000000,1024.000000) scale(0.100000,-0.100000)"
fill="#000000" stroke="none">
<path d="M3130 7724 c0 -14 4 -23 10 -19 6 3 10 15 10 26 0 10 -4 19 -10 19
-5 0 -10 -12 -10 -26z"/>
<path d="M3098 7703 c7 -3 16 -2 19 1 4 3 -2 6 -13 5 -11 0 -14 -3 -6 -6z"/>
<path d="M7350 7489 c-17 -31 -5 -51 27 -47 23 2 29 8 31 36 3 28 0 32 -22 32
-15 0 -30 -8 -36 -21z"/>
<path d="M5888 7445 c-5 -26 13 -40 30 -23 7 7 8 0 2 -25 -8 -39 4 -52 38 -41
12 4 14 3 4 -4 -16 -11 21 -27 86 -37 34 -6 48 -14 62 -37 10 -16 21 -29 24
-28 16 4 27 -7 21 -21 -7 -19 -65 -20 -65 -2 0 7 -6 10 -14 7 -7 -3 -20 2 -29
10 -24 24 -33 20 -67 -29 -50 -73 -139 -84 -181 -23 -8 12 -28 40 -45 63 -38
51 -59 87 -56 98 1 4 -7 7 -18 7 -11 0 -20 7 -20 15 0 9 -9 15 -21 15 -16 0
-19 4 -15 17 4 10 4 14 0 11 -4 -4 -15 -3 -25 3 -26 13 -24 1 4 -23 15 -13 18
-21 9 -25 -7 -2 -19 -11 -26 -19 -11 -11 -15 -11 -19 -1 -3 9 -11 9 -39 0 -53
-20 -88 -17 -88 7 0 13 -7 20 -20 20 -11 0 -20 -4 -20 -10 0 -5 -9 -10 -20
-10 -13 0 -20 -7 -20 -20 0 -17 -7 -20 -47 -20 -59 0 -165 21 -176 35 -6 7
-10 6 -14 -2 -2 -7 -13 -13 -23 -13 -10 0 -20 -5 -22 -12 -3 -8 -25 -12 -61
-11 -44 1 -57 -2 -57 -13 0 -12 -4 -13 -22 -2 -33 17 -89 18 -115 2 -15 -9
-23 -10 -23 -4 0 6 -4 8 -10 5 -5 -3 -10 1 -10 9 0 9 -7 16 -16 16 -8 0 -22 7
-30 15 -9 8 -24 15 -35 15 -10 0 -19 7 -19 15 0 8 -6 15 -12 15 -9 0 -8 4 2
10 12 8 11 10 -6 10 -12 0 -24 7 -28 15 -3 8 -12 15 -20 15 -8 0 -17 6 -19 13
-9 20 -27 -14 -27 -50 0 -34 -12 -41 -39 -24 -9 6 -22 6 -33 0 -12 -7 -18 -6
-18 1 0 8 -6 8 -20 0 -14 -7 -20 -7 -20 0 0 5 -19 10 -42 10 -44 0 -108 -19
-108 -32 0 -4 -7 -8 -15 -8 -7 0 -18 -7 -23 -15 -10 -19 -179 -78 -198 -71 -9
3 -14 -2 -14 -14 0 -12 -7 -20 -16 -20 -11 0 -15 6 -12 18 4 15 -3 18 -61 21
-36 1 -72 6 -81 11 -8 4 -28 6 -43 3 -22 -4 -27 -2 -27 14 0 42 -150 34 -176
-8 -4 -8 -3 -9 4 -5 7 4 12 2 12 -3 0 -6 -8 -10 -17 -9 -35 3 -64 -2 -59 -10
2 -4 -11 -6 -31 -4 -21 3 -38 0 -43 -7 -9 -15 -70 -18 -78 -4 -12 19 -102 44
-120 34 -39 -21 -234 -239 -323 -361 -110 -150 -219 -319 -260 -401 -176 -355
-295 -784 -321 -1164 -10 -152 -9 -169 16 -350 37 -259 57 -355 114 -530 65
-198 144 -378 235 -533 41 -70 82 -143 92 -162 21 -41 80 -122 145 -200 26
-30 64 -78 86 -106 77 -101 273 -322 316 -356 23 -20 60 -42 81 -49 26 -9 46
-26 65 -56 27 -43 147 -145 208 -176 17 -9 58 -39 90 -66 76 -65 90 -69 99
-24 9 47 46 83 85 83 37 0 90 -47 90 -80 0 -27 -29 -90 -41 -90 -29 0 2 -24
77 -60 79 -37 88 -40 103 -25 22 19 80 19 109 -1 27 -19 30 -64 5 -65 -10 0 7
-7 37 -14 57 -14 70 -9 70 26 0 23 53 69 79 69 30 0 78 -26 91 -50 6 -12 8
-40 4 -68 l-6 -48 58 -11 c33 -6 60 -10 61 -9 1 1 -6 23 -14 50 -16 48 -16 51
4 85 23 40 53 52 98 39 60 -16 81 -80 50 -155 -8 -20 -13 -38 -10 -41 3 -3 45
-7 93 -9 66 -3 83 -1 69 7 -26 17 -47 64 -47 108 0 75 62 116 127 85 59 -28
68 -104 18 -169 -14 -18 -25 -35 -25 -38 0 -9 174 -7 188 3 10 6 10 11 -3 21
-43 36 -56 100 -30 151 31 58 104 61 151 6 27 -32 28 -61 8 -143 l-6 -25 63 7
c35 4 65 8 67 9 1 1 -5 18 -13 38 -24 57 -19 94 15 129 26 25 36 29 63 24 66
-12 103 -84 77 -150 -11 -30 -8 -31 54 -15 l42 10 0 54 c-1 103 78 141 152 73
14 -14 22 -33 22 -56 0 -27 3 -33 16 -28 9 3 22 6 30 6 7 0 22 17 33 37 36 71
76 90 137 65 27 -12 37 -9 108 24 l77 37 -26 27 c-14 15 -28 43 -31 62 -5 29
-1 41 26 71 35 41 63 46 110 22 35 -18 50 -43 50 -84 0 -17 3 -31 6 -31 21 0
73 45 93 80 21 37 25 40 67 40 36 0 55 7 97 38 29 21 63 45 77 54 21 13 24 21
21 61 -2 40 2 50 25 72 29 27 65 32 109 15 23 -9 30 -5 80 48 49 51 54 60 49
89 -3 17 -3 41 1 52 10 33 61 63 106 63 25 -1 39 4 39 12 0 6 23 37 50 67 46
49 87 101 205 259 91 123 254 422 317 583 46 119 109 314 143 443 84 320 88
757 10 1119 -22 102 -101 348 -140 440 l-17 40 -19 -24 c-10 -13 -25 -21 -33
-18 -7 3 -17 2 -22 -3 -5 -5 -18 -10 -29 -11 -20 -3 -154 34 -187 52 -10 5
-25 9 -34 9 -9 0 -37 24 -62 53 -26 28 -67 71 -91 94 -52 51 -121 142 -121
160 0 7 -3 12 -7 12 -25 -4 -41 3 -46 20 -3 11 0 22 7 24 6 2 3 3 -7 1 -9 -1
-34 14 -55 33 -20 20 -55 48 -77 62 -40 26 -59 40 -95 73 -11 10 -22 13 -25 8
-13 -21 -24 -9 -19 19 6 27 0 34 -55 77 -33 26 -87 62 -118 82 -32 19 -62 40
-66 48 -13 22 -30 16 -24 -8 6 -22 6 -22 -8 -4 -8 11 -15 28 -15 38 0 12 -25
30 -81 58 -44 22 -101 52 -125 66 -24 14 -44 23 -44 19 0 -4 -8 2 -17 14 -20
23 -154 77 -218 88 -22 3 -61 14 -86 24 -26 10 -50 15 -53 12 -3 -4 -6 -1 -6
5 0 6 -9 13 -19 17 -10 3 -21 14 -24 24 -2 10 -18 27 -34 39 l-31 22 -4 -25z
m-1316 -182 c1 -12 -1 -23 -7 -25 -5 -2 -11 13 -13 32 -4 38 14 32 20 -7z
m250 -13 c-7 -43 -15 -42 -26 3 -6 24 -4 28 11 25 13 -2 17 -11 15 -28z m550
5 c-2 -14 -11 -25 -18 -25 -20 0 -17 38 4 43 9 3 18 5 18 6 1 0 -1 -10 -4 -24z
m-1052 -5 c0 -11 -4 -20 -10 -20 -5 0 -10 9 -10 20 0 11 5 20 10 20 6 0 10 -9
10 -20z m800 -6 c0 -20 -18 -17 -29 5 -9 16 -8 18 9 14 11 -3 20 -12 20 -19z
m-1347 9 c9 -9 -13 -34 -24 -27 -14 8 -11 34 4 34 8 0 17 -3 20 -7z m1837 -7
c0 -8 -4 -17 -9 -21 -12 -7 -24 12 -16 25 9 15 25 12 25 -4z m-2360 -201 c0
-18 -5 -25 -20 -25 -22 0 -26 20 -8 38 19 19 28 14 28 -13z m790 -8 c-1 -21
-1 -21 -15 -3 -8 10 -12 23 -9 28 9 14 24 -2 24 -25z m532 21 c7 -18 -2 -39
-13 -32 -12 7 -12 44 0 44 5 0 11 -6 13 -12z m258 -8 c0 -11 -7 -20 -15 -20
-8 0 -15 9 -15 20 0 11 7 20 15 20 8 0 15 -9 15 -20z m-1060 -16 c0 -8 -4 -14
-10 -14 -5 0 -10 9 -10 21 0 11 5 17 10 14 6 -3 10 -13 10 -21z m550 17 c0 -6
-4 -13 -10 -16 -5 -3 -10 1 -10 9 0 9 5 16 10 16 6 0 10 -4 10 -9z m795 -21
c-5 -8 -11 -8 -17 -2 -6 6 -7 16 -3 22 5 8 11 8 17 2 6 -6 7 -16 3 -22z m255
9 c0 -24 -23 -21 -28 4 -2 10 3 17 12 17 10 0 16 -9 16 -21z m231 -16 c-9 -16
-10 -14 -11 12 0 21 3 26 11 18 8 -8 8 -16 0 -30z m279 17 c0 -11 -4 -20 -10
-20 -5 0 -10 9 -10 20 0 11 5 20 10 20 6 0 10 -9 10 -20z m277 4 c8 -20 -8
-36 -26 -25 -15 10 -8 41 9 41 6 0 13 -7 17 -16z m-2652 -3 c7 -12 -12 -24
-25 -16 -11 7 -4 25 10 25 5 0 11 -4 15 -9z m2903 -15 c3 -12 -1 -17 -10 -14
-7 3 -15 13 -16 22 -3 12 1 17 10 14 7 -3 15 -13 16 -22z m260 -189 c4 -29
-12 -37 -22 -11 -10 26 -7 46 7 42 6 -3 13 -17 15 -31z m-2898 3 c0 -11 -4
-20 -9 -20 -11 0 -22 26 -14 34 12 12 23 5 23 -14z m280 -1 c0 -24 -23 -21
-28 4 -2 10 3 17 12 17 10 0 16 -9 16 -21z m268 4 c-4 -22 -22 -20 -26 1 -2
10 3 16 13 16 10 0 15 -7 13 -17z m258 -20 c-7 -17 -8 -17 -17 0 -12 21 -2 44
13 29 6 -6 8 -19 4 -29z m254 11 c0 -8 -4 -14 -10 -14 -5 0 -10 9 -10 21 0 11
5 17 10 14 6 -3 10 -13 10 -21z m540 7 c0 -23 -16 -36 -25 -21 -9 14 1 40 15
40 5 0 10 -9 10 -19z m788 -3 c-2 -12 -9 -23 -15 -26 -19 -6 -29 28 -12 39 23
14 31 10 27 -13z m252 2 c0 -11 -4 -20 -9 -20 -11 0 -22 26 -14 34 12 12 23 5
23 -14z m-3190 -11 c0 -11 -4 -17 -10 -14 -5 3 -10 13 -10 21 0 8 5 14 10 14
6 0 10 -9 10 -21z m290 6 c0 -8 -4 -15 -10 -15 -5 0 -10 7 -10 15 0 8 5 15 10
15 6 0 10 -7 10 -15z m1600 0 c0 -8 -4 -15 -10 -15 -5 0 -10 7 -10 15 0 8 5
15 10 15 6 0 10 -7 10 -15z m500 1 c0 -8 -4 -17 -9 -21 -12 -7 -24 12 -16 25
9 15 25 12 25 -4z m280 -1 c0 -8 -7 -15 -15 -15 -8 0 -15 7 -15 15 0 8 7 15
15 15 8 0 15 -7 15 -15z m-1570 -195 c0 -11 -4 -20 -9 -20 -14 0 -23 18 -16
30 10 17 25 11 25 -10z m260 0 c0 -11 -7 -20 -15 -20 -8 0 -15 9 -15 20 0 11
7 20 15 20 8 0 15 -9 15 -20z m245 0 c0 -7 -6 -15 -12 -17 -8 -3 -13 4 -13 17
0 13 5 20 13 18 6 -3 12 -11 12 -18z m1065 -6 c0 -8 -7 -14 -15 -14 -15 0 -21
21 -9 33 10 9 24 -2 24 -19z m522 17 c2 -5 48 -14 103 -19 83 -9 102 -8 111 4
17 22 47 18 39 -5 -4 -15 4 -26 37 -49 61 -42 92 -78 128 -147 l31 -60 109 -1
c92 -1 116 -5 162 -26 96 -44 162 -136 175 -246 l5 -49 88 -6 c101 -6 147 -26
216 -89 66 -60 104 -145 104 -229 l0 -68 53 -24 c59 -27 93 -66 112 -131 20
-66 9 -457 -15 -512 -20 -46 -66 -86 -122 -103 l-38 -12 6 -58 c10 -95 -15
-162 -89 -236 -74 -73 -108 -85 -236 -85 l-91 0 0 -55 c0 -118 -78 -240 -183
-286 -43 -18 -71 -23 -161 -24 l-108 -1 -12 -36 c-30 -87 -98 -158 -192 -200
-101 -45 -283 -35 -395 22 l-36 19 -23 -24 c-29 -31 -51 -31 -86 -2 -32 28
-36 78 -8 108 17 19 16 23 -22 96 l-39 76 -3 322 -4 322 -751 7 c-414 3 -767
9 -784 12 l-33 6 0 -328 c0 -314 -1 -332 -22 -392 -33 -93 -97 -167 -188 -216
l-75 -41 -125 0 c-117 0 -129 2 -182 28 -83 41 -152 107 -179 171 l-22 54
-121 4 c-102 3 -128 7 -166 27 -104 53 -167 147 -177 259 l-6 67 -101 0 c-120
0 -158 16 -229 95 -57 63 -77 121 -77 221 0 82 -4 89 -57 89 -14 0 -38 9 -54
21 -58 41 -60 54 -62 357 -2 276 -2 277 21 310 29 40 70 62 117 62 l35 0 0 70
c0 116 57 229 148 292 46 32 49 33 153 33 l107 0 4 65 c8 106 74 207 164 251
40 19 61 21 175 20 112 -1 129 1 129 15 0 27 58 120 95 153 93 81 238 111 385
79 120 -27 259 -163 296 -292 17 -59 19 -140 19 -657 0 0 352 -2 782 -5 l782
-5 3 333 3 333 31 65 c59 123 130 188 238 218 32 9 60 22 63 29 6 15 40 18 45
4z m536 -19 c3 -19 -1 -23 -15 -20 -10 2 -19 14 -21 26 -3 19 1 23 15 20 10
-2 19 -14 21 -26z m-3728 4 c0 -8 -4 -18 -10 -21 -5 -3 -10 3 -10 14 0 12 5
21 10 21 6 0 10 -6 10 -14z m550 -1 c0 -8 -6 -15 -14 -15 -17 0 -28 14 -19 24
12 12 33 6 33 -9z m1593 1 c6 -16 -2 -28 -14 -20 -12 7 -11 34 0 34 5 0 11 -6
14 -14z m239 -18 c-6 -6 -15 -9 -18 -5 -4 3 -4 14 0 23 5 13 9 15 18 6 9 -9 9
-15 0 -24z m556 15 c-2 -10 -12 -18 -23 -18 -11 0 -21 8 -23 18 -3 13 3 17 23
17 20 0 26 -4 23 -17z m-3188 -3 c0 -5 -4 -10 -10 -10 -5 0 -10 5 -10 10 0 6
5 10 10 10 6 0 10 -4 10 -10z m540 -5 c0 -8 -4 -15 -9 -15 -13 0 -22 16 -14
24 11 11 23 6 23 -9z m1600 5 c0 -5 -4 -10 -9 -10 -6 0 -13 5 -16 10 -3 6 1
10 9 10 9 0 16 -4 16 -10z m-1860 -195 c0 -8 -7 -15 -15 -15 -26 0 -18 20 13
29 1 1 2 -6 2 -14z m1325 -3 c0 -18 -20 -15 -23 4 -3 10 1 15 10 12 7 -3 13
-10 13 -16z m781 -19 c-11 -11 -19 6 -11 24 8 17 8 17 12 0 3 -10 2 -21 -1
-24z m254 17 c0 -11 -4 -20 -10 -20 -5 0 -10 9 -10 20 0 11 5 20 10 20 6 0 10
-9 10 -20z m278 3 c-4 -22 -22 -20 -26 1 -2 10 3 16 13 16 10 0 15 -7 13 -17z
m1082 -9 c0 -8 -4 -14 -10 -14 -5 0 -10 9 -10 21 0 11 5 17 10 14 6 -3 10 -13
10 -21z m-4050 -4 c0 -19 -11 -26 -23 -14 -8 8 3 34 14 34 5 0 9 -9 9 -20z
m600 5 c0 -9 -6 -12 -15 -9 -8 4 -15 10 -15 15 0 5 7 9 15 9 8 0 15 -7 15 -15z
m1300 0 c0 -8 -4 -15 -10 -15 -5 0 -10 7 -10 15 0 8 5 15 10 15 6 0 10 -7 10
-15z m286 -12 c-10 -10 -19 5 -10 18 6 11 8 11 12 0 2 -7 1 -15 -2 -18z m2133
18 c14 -9 9 -41 -7 -41 -15 0 -34 28 -27 40 8 12 16 13 34 1z m-2669 -201 c0
-11 -4 -20 -9 -20 -11 0 -22 26 -14 34 12 12 23 5 23 -14z m800 -11 c0 -20
-15 -26 -24 -10 -8 13 4 42 15 35 5 -3 9 -14 9 -25z m2465 21 c3 -5 1 -10 -4
-10 -6 0 -11 5 -11 10 0 6 2 10 4 10 3 0 8 -4 11 -10z m-3000 -18 c0 -18 -20
-15 -23 4 -3 10 1 15 10 12 7 -3 13 -10 13 -16z m285 3 c0 -8 -4 -15 -10 -15
-5 0 -10 7 -10 15 0 8 5 15 10 15 6 0 10 -7 10 -15z m764 -16 c-10 -16 -24 -9
-24 12 0 18 2 19 15 9 8 -7 12 -16 9 -21z m-2987 -1 c-3 -8 -6 -5 -6 6 -1 11
2 17 5 13 3 -3 4 -12 1 -19z m2713 7 c0 -8 -4 -15 -9 -15 -5 0 -11 7 -15 15
-3 9 0 15 9 15 8 0 15 -7 15 -15z m-2480 -10 c0 -8 -7 -15 -15 -15 -8 0 -15 7
-15 15 0 8 7 15 15 15 8 0 15 -7 15 -15z m1440 -184 c0 -6 -4 -13 -10 -16 -5
-3 -10 1 -10 9 0 9 5 16 10 16 6 0 10 -4 10 -9z m260 -11 c0 -11 -4 -20 -10
-20 -5 0 -10 9 -10 20 0 11 5 20 10 20 6 0 10 -9 10 -20z m780 1 c0 -23 -16
-36 -25 -21 -9 14 1 40 15 40 5 0 10 -9 10 -19z m-490 -7 c0 -9 -5 -14 -12
-12 -18 6 -21 28 -4 28 9 0 16 -7 16 -16z m245 -2 c0 -18 -20 -15 -23 4 -3 10
1 15 10 12 7 -3 13 -10 13 -16z m525 3 c0 -8 -7 -15 -15 -15 -8 0 -15 7 -15
15 0 8 7 15 15 15 8 0 15 -7 15 -15z m-1320 -205 c0 -11 -4 -20 -10 -20 -5 0
-10 9 -10 20 0 11 5 20 10 20 6 0 10 -9 10 -20z m1038 -7 c-4 -34 -28 -43 -28
-10 0 25 7 37 22 37 5 0 8 -12 6 -27z m-778 -3 c0 -11 -4 -20 -9 -20 -5 0 -11
9 -14 20 -3 13 0 20 9 20 8 0 14 -9 14 -20z m531 7 c-1 -4 -1 -14 -1 -22 0 -8
-4 -15 -9 -15 -12 0 -23 29 -15 41 6 11 26 8 25 -4z m527 -4 c2 -8 -5 -13 -17
-13 -12 0 -21 6 -21 16 0 18 31 15 38 -3z m-768 -7 c0 -8 -4 -18 -10 -21 -5
-3 -10 -4 -10 -1 0 2 -3 11 -6 20 -4 11 -1 16 10 16 9 0 16 -6 16 -14z m258
-1049 c23 -28 24 -65 2 -87 -19 -19 -24 -20 -42 -8 -36 24 -41 56 -13 84 27
27 38 30 53 11z m534 -4 c25 -22 23 -49 -6 -68 -29 -19 -54 -10 -63 23 -4 19
-1 30 17 44 27 22 29 22 52 1z m-272 -24 c9 -16 8 -26 -5 -45 -18 -27 -19 -28
-44 -14 -25 13 -33 37 -21 61 14 26 56 25 70 -2z m-511 -3 c15 -18 -2 -56 -24
-56 -24 0 -36 33 -18 52 19 22 27 22 42 4z m-295 -34 c2 -4 1 -14 -4 -22 -7
-11 -11 -11 -24 -1 -9 7 -13 17 -10 22 7 11 31 12 38 1z m-264 -22 c0 -5 -9
-10 -20 -10 -11 0 -20 5 -20 10 0 6 9 10 20 10 11 0 20 -4 20 -10z m827 -152
c27 -25 30 -73 7 -106 -22 -32 -76 -30 -103 4 -28 36 -26 60 8 95 35 35 57 36
88 7z m263 -3 c40 -43 27 -105 -27 -126 -52 -20 -108 43 -83 93 33 63 71 75
110 33z m-546 -5 c32 -12 35 -51 6 -80 -24 -24 -34 -25 -54 -4 -21 20 -20 53
1 76 19 21 15 20 47 8z m808 -7 c26 -23 22 -58 -8 -82 -33 -26 -39 -26 -64 -1
-53 53 16 134 72 83z m-1094 -51 c2 -12 -1 -22 -6 -22 -15 0 -34 28 -27 40 10
17 30 6 33 -18z m-267 -5 c-1 -12 -15 -9 -19 4 -3 6 1 10 8 8 6 -3 11 -8 11
-12z m-1676 -33 c0 -12 -8 -20 -22 -22 -25 -4 -31 16 -11 36 17 17 33 10 33
-14z m2520 -139 c51 -50 18 -135 -51 -135 -67 0 -97 84 -48 134 33 33 68 33
99 1z m260 0 c48 -47 17 -135 -46 -135 -39 0 -79 40 -79 78 0 72 76 107 125
57z m-520 -2 c21 -20 15 -76 -11 -104 -25 -28 -68 -24 -93 7 -25 32 -27 71 -4
96 21 23 85 24 108 1z m792 -5 c30 -28 29 -68 -2 -102 -30 -33 -68 -34 -100
-1 -69 68 31 170 102 103z m-1099 -40 c2 -16 -1 -28 -7 -28 -25 0 -41 14 -41
37 0 20 4 24 23 21 16 -2 23 -11 25 -30z m-268 -3 c0 -26 -14 -33 -25 -15 -9
14 1 40 15 40 5 0 10 -11 10 -25z m2750 -35 c0 -5 -4 -10 -10 -10 -5 0 -10 5
-10 10 0 6 5 10 10 10 6 0 10 -4 10 -10z m324 -1 c-3 -6 0 -15 7 -21 10 -6 7
-8 -11 -6 -32 4 -41 38 -10 38 13 0 19 -4 14 -11z m-4447 -31 c-3 -7 -5 -2 -5
12 0 14 2 19 5 13 2 -7 2 -19 0 -25z m1912 -98 c4 0 17 -9 29 -20 33 -31 31
-102 -4 -129 -15 -12 -37 -21 -49 -21 -31 0 -75 54 -75 92 0 36 52 93 76 84 9
-3 19 -6 23 -6z m536 -5 c58 -24 71 -84 29 -134 -43 -52 -114 -35 -137 32 -8
22 8 65 35 95 25 26 28 26 73 7z m-784 -24 c16 -16 29 -39 29 -51 0 -27 -43
-70 -70 -70 -54 0 -80 83 -38 127 28 30 43 29 79 -6z m546 7 c35 -38 34 -88
-2 -123 -50 -51 -129 -14 -129 60 0 73 85 113 131 63z m528 -3 c48 -47 24
-128 -41 -141 -24 -4 -37 0 -62 21 -40 34 -42 72 -6 114 33 39 74 41 109 6z
m-1350 -25 c9 -29 -3 -60 -24 -60 -21 0 -41 19 -41 40 0 39 54 55 65 20z
m2384 -4 c28 -52 -33 -90 -65 -41 -12 18 -11 24 2 43 20 29 47 28 63 -2z
m-3463 -45 c-11 -18 -36 -13 -36 7 0 10 3 22 7 26 10 10 37 -20 29 -33z m3722
27 c19 -19 15 -58 -7 -58 -29 0 -45 25 -31 49 12 24 21 26 38 9z m-3465 -22
c6 -16 -16 -40 -26 -29 -4 3 -7 15 -7 25 0 21 25 24 33 4z m3881 8 c9 -3 16
-12 16 -20 0 -19 -46 -48 -65 -40 -20 7 -19 43 3 55 20 12 25 13 46 5z m-4744
-25 c0 -24 -23 -21 -28 4 -2 10 3 17 12 17 10 0 16 -9 16 -21z m310 6 c0 -8
-4 -15 -10 -15 -5 0 -10 7 -10 15 0 8 5 15 10 15 6 0 10 -7 10 -15z m1938
-161 c32 -37 30 -88 -7 -125 -37 -36 -70 -37 -103 -1 -46 49 -45 96 4 142 29
27 74 21 106 -16z m265 6 c10 -9 21 -36 24 -58 5 -36 2 -45 -25 -72 -39 -39
-74 -39 -113 -1 -81 81 31 211 114 131z m497 15 c35 -18 50 -43 50 -85 0 -43
-14 -65 -50 -80 -61 -25 -129 34 -115 100 6 28 56 80 76 80 6 0 23 -7 39 -15z
m547 -7 c28 -31 36 -60 24 -90 -30 -80 -126 -77 -154 5 -8 23 16 71 45 91 31
22 61 20 85 -6z m-1853 -19 c31 -37 33 -58 5 -93 -15 -19 -30 -26 -54 -26 -63
0 -88 78 -40 125 32 33 58 31 89 -6z m273 9 c51 -47 15 -138 -54 -138 -64 0
-96 75 -57 135 21 33 78 34 111 3z m802 -4 c55 -70 -11 -176 -89 -144 -87 36
-64 170 30 170 30 0 43 -6 59 -26z m524 9 c51 -58 15 -153 -59 -153 -73 0
-110 84 -63 144 16 21 29 26 63 26 28 0 48 -6 59 -17z m515 1 c54 -38 44 -118
-17 -144 -41 -17 -74 -3 -96 41 -40 77 43 153 113 103z m279 -16 c58 -55 0
-143 -77 -117 -52 19 -65 67 -29 113 26 33 73 35 106 4z m-2676 2 c25 -14 25
-54 -1 -80 -24 -24 -38 -25 -62 -3 -50 45 2 115 63 83z m2928 -14 c29 -31 23
-68 -15 -92 -24 -16 -27 -16 -52 3 -35 26 -38 52 -12 86 27 33 50 34 79 3z
m-3215 -28 c16 -26 -16 -57 -38 -38 -17 13 -21 42 -9 54 11 11 35 3 47 -16z
m3466 -2 c0 -36 -10 -56 -29 -56 -23 0 -41 20 -41 45 0 29 8 35 42 35 23 0 28
-4 28 -24z m-4012 -14 c2 -15 -2 -22 -12 -22 -11 0 -16 9 -16 26 0 31 23 28
28 -4z m282 8 c0 -24 -26 -38 -42 -22 -16 16 -2 42 22 42 13 0 20 -7 20 -20z
m-800 6 c0 -2 3 -11 6 -20 4 -10 1 -16 -9 -16 -8 0 -17 9 -20 20 -3 13 0 20 9
20 8 0 14 -2 14 -4z m240 -16 c0 -11 -4 -20 -10 -20 -5 0 -10 9 -10 20 0 11 5
20 10 20 6 0 10 -9 10 -20z m1381 -155 c77 -41 56 -165 -29 -167 -78 -2 -112
94 -53 153 34 33 41 35 82 14z m550 -14 c59 -60 26 -161 -54 -161 -81 0 -117
101 -58 161 18 17 40 29 56 29 16 0 38 -12 56 -29z m271 -1 c27 -28 30 -36 25
-76 -6 -61 -29 -84 -83 -84 -34 0 -47 5 -63 26 -35 44 -23 111 27 152 26 20
62 14 94 -18z m266 -6 c32 -36 30 -90 -5 -126 -38 -40 -83 -38 -118 4 -35 42
-29 91 16 131 37 34 71 31 107 -9z m260 4 c32 -31 31 -100 -3 -133 -34 -35
-78 -33 -116 4 -33 34 -37 69 -12 111 31 53 85 60 131 18z m264 5 c37 -33 29
-131 -12 -153 -33 -18 -79 -11 -105 15 -48 47 -28 134 35 158 21 8 62 -2 82
-20z m259 -2 c21 -22 29 -39 29 -66 0 -45 -45 -95 -85 -95 -37 0 -85 50 -85
89 0 40 53 101 87 101 14 0 37 -13 54 -29z m-2392 -7 c62 -79 -34 -180 -106
-112 -49 46 -14 138 52 138 24 0 39 -7 54 -26z m269 6 c30 -28 30 -92 0 -120
-50 -46 -128 -8 -128 63 0 66 80 101 128 57z m533 7 c47 -36 51 -97 10 -138
-38 -37 -82 -39 -116 -4 -39 38 -28 114 19 147 17 12 69 9 87 -5z m1858 -13
c47 -39 38 -110 -18 -139 -42 -21 -59 -19 -92 14 -36 36 -39 86 -8 125 28 35
76 35 118 0z m280 0 c25 -32 27 -74 6 -114 -37 -71 -155 -34 -155 49 0 79 103
124 149 65z m262 -3 c33 -34 36 -60 12 -102 -34 -58 -110 -63 -138 -9 -22 42
-19 74 11 109 34 41 75 42 115 2z m-3481 -8 c33 -43 5 -113 -46 -113 -29 0
-64 44 -64 81 0 57 73 78 110 32z m-288 0 c23 -21 23 -55 -1 -84 -16 -20 -22
-22 -44 -12 -32 15 -43 58 -22 89 18 28 41 31 67 7z m-273 -27 c16 -30 6 -66
-19 -66 -25 0 -42 33 -34 65 8 32 37 33 53 1z m1107 -200 c19 -19 34 -43 34
-54 0 -90 -82 -132 -141 -73 -33 33 -37 67 -14 111 30 59 73 64 121 16z m1604
-2 c19 -19 25 -35 25 -70 0 -38 -5 -50 -29 -71 -57 -49 -146 -4 -146 73 0 47
15 73 53 89 38 17 64 11 97 -21z m268 0 c29 -33 30 -92 1 -128 -16 -21 -29
-26 -63 -26 -57 0 -89 32 -89 90 0 88 93 128 151 64z m251 13 c27 -23 42 -74
30 -104 -17 -46 -39 -63 -81 -63 -52 0 -88 35 -88 86 0 51 57 109 98 99 15 -4
33 -12 41 -18z m274 -18 c57 -61 21 -149 -62 -149 -41 0 -72 26 -86 71 -9 27
25 91 55 106 32 16 59 8 93 -28z m275 8 c21 -19 23 -29 19 -71 -5 -60 -32 -86
-86 -86 -28 0 -44 7 -64 28 -43 45 -32 107 25 142 38 24 71 19 106 -13z
m-3491 -3 c25 -19 33 -32 33 -57 0 -91 -109 -114 -140 -31 -16 42 24 112 64
114 5 0 24 -11 43 -26z m542 16 c43 -22 50 -102 14 -142 -24 -26 -85 -24 -110
5 -28 31 -34 53 -22 85 22 57 70 78 118 52z m560 -16 c13 -16 21 -41 21 -64 0
-54 -31 -90 -79 -90 -83 0 -114 96 -54 162 26 29 87 24 112 -8z m265 -5 c44
-53 31 -119 -28 -144 -47 -20 -87 -7 -110 36 -52 95 69 190 138 108z m260 6
c21 -20 26 -33 26 -74 0 -42 -4 -53 -26 -70 -36 -28 -76 -26 -113 5 -26 22
-31 33 -31 70 0 85 83 125 144 69z m273 3 c17 -16 23 -32 23 -64 0 -56 -7 -72
-41 -89 -40 -21 -69 -19 -103 8 -23 18 -29 32 -30 65 -2 83 93 134 151 80z
m267 -11 c47 -64 8 -149 -70 -149 -77 0 -111 88 -58 152 23 27 32 31 67 28 30
-2 45 -10 61 -31z m-1882 6 c26 -23 25 -96 -2 -123 -69 -69 -175 46 -108 117
26 28 82 31 110 6z m2634 -218 c71 -29 80 -136 14 -170 -39 -20 -62 -19 -94 6
-55 44 -51 110 9 157 33 26 27 26 71 7z m-2629 -21 c22 -22 25 -32 20 -71 -6
-57 -32 -85 -80 -86 -53 -1 -87 33 -87 89 0 81 92 123 147 68z m248 20 c45
-18 60 -117 23 -151 -48 -44 -100 -36 -132 18 -42 71 32 162 109 133z m295
-29 c19 -19 24 -34 23 -67 -4 -83 -86 -116 -144 -59 -32 32 -37 70 -15 110 30
54 89 61 136 16z m263 7 c58 -61 22 -162 -58 -162 -50 0 -85 36 -85 89 0 32 6
44 35 70 44 38 73 39 108 3z m268 -1 c43 -43 37 -125 -11 -151 -41 -22 -81
-15 -112 19 -31 35 -35 68 -13 111 30 58 89 67 136 21z m248 14 c34 -17 41
-33 41 -89 0 -54 -34 -90 -85 -90 -52 0 -85 36 -85 91 0 52 13 81 43 93 32 13
55 12 86 -5z m280 -11 c26 -21 31 -33 31 -68 0 -49 -18 -79 -60 -96 -78 -32
-153 68 -103 140 39 57 84 65 132 24z m245 15 c60 -27 69 -122 16 -160 -46
-33 -66 -32 -104 2 -40 35 -46 70 -21 119 25 48 61 61 109 39z m281 -13 c25
-20 30 -31 30 -69 0 -60 -32 -97 -85 -97 -84 0 -122 100 -61 161 36 36 75 38
116 5z m264 -2 c26 -21 31 -33 31 -69 0 -90 -99 -130 -155 -63 -23 27 -26 39
-22 72 11 79 87 110 146 60z m532 -3 c40 -41 40 -91 -1 -133 -25 -25 -35 -29
-63 -23 -48 10 -75 31 -82 64 -21 98 78 160 146 92z m-2123 -238 c24 -15 42
-51 42 -85 0 -27 -62 -88 -89 -88 -87 0 -131 110 -68 167 39 36 67 37 115 6z
m1335 -14 c47 -51 33 -119 -29 -145 -29 -12 -39 -12 -68 0 -40 17 -56 42 -56
88 0 90 91 124 153 57z m264 9 c32 -30 32 -97 0 -134 -34 -39 -100 -40 -133
-1 -42 49 -26 134 30 157 30 13 76 3 103 -22z m-1855 -8 c27 -27 30 -36 25
-72 -7 -56 -36 -83 -88 -83 -73 0 -111 74 -74 145 17 32 27 38 73 39 25 1 42
-7 64 -29z m532 -1 c36 -43 35 -91 -3 -130 -39 -38 -79 -38 -120 0 -40 38 -42
86 -5 130 20 25 34 31 64 31 30 0 44 -6 64 -31z m245 16 c35 -18 55 -63 46
-105 -8 -36 -55 -70 -98 -70 -40 0 -87 49 -87 90 0 35 23 86 42 93 25 10 69 7
97 -8z m266 5 c31 -12 58 -69 49 -105 -10 -42 -52 -75 -94 -75 -30 0 -44 6
-64 31 -36 43 -35 91 3 130 31 30 61 36 106 19z m280 -14 c48 -48 40 -122 -16
-151 -42 -22 -64 -18 -98 16 -40 39 -42 85 -5 128 33 40 83 43 119 7z"/>
<path d="M3670 5282 l0 -851 -37 -10 c-21 -5 -49 -11 -62 -14 -32 -8 -107 31
-149 77 -18 20 -38 34 -44 30 -7 -5 -7 -75 2 -110 0 -1 13 -15 30 -32 66 -70
138 -82 217 -38 27 14 69 36 95 48 27 13 49 30 52 42 3 12 6 398 6 859 0 790
-1 837 -17 837 -10 0 -35 3 -55 6 l-38 7 0 -851z"/>
<path d="M6734 6111 c-2 -2 -4 -384 -4 -848 l0 -843 23 -9 c12 -5 47 -30 79
-55 68 -56 107 -70 161 -55 47 13 131 88 146 131 10 29 10 30 -6 16 -30 -27
-93 -48 -142 -48 -34 0 -60 8 -101 33 l-55 33 0 821 0 821 -48 4 c-27 2 -51 1
-53 -1z"/>
<path d="M3190 5866 c0 -4 8 -19 18 -34 16 -24 17 -65 14 -536 -2 -388 -5
-512 -15 -518 -7 -4 -33 -12 -60 -18 -37 -8 -57 -7 -90 5 -54 19 -57 19 -57
-4 0 -11 -6 -22 -12 -24 -10 -4 -10 -6 0 -6 6 -1 12 -7 12 -13 0 -18 66 -59
105 -65 22 -4 52 4 103 26 39 17 81 31 95 31 l24 0 6 218 c4 119 7 373 7 563
l0 345 -57 11 c-32 6 -66 14 -75 18 -10 4 -18 4 -18 1z"/>
<path d="M7167 5628 c-9 -258 -9 -603 0 -784 6 -133 7 -141 25 -136 11 2 49
-3 85 -13 93 -25 195 -16 234 21 15 14 29 35 32 45 5 17 3 18 -16 4 -38 -27
-117 -19 -189 18 l-63 33 -6 114 c-8 154 -9 682 -1 797 8 103 8 103 -57 103
l-38 0 -6 -202z"/>
<path d="M2810 5285 c3 -101 8 -186 10 -189 3 -2 25 -6 50 -8 l45 -3 3 193 2
192 -57 0 -58 0 5 -185z"/>
<path d="M7593 5453 c-13 -5 -18 -55 -7 -66 7 -7 40 26 46 45 2 5 16 11 31 11
15 1 27 5 27 10 0 8 -78 8 -97 0z"/>
<path d="M6020 5277 c0 -30 -48 -105 -89 -140 l-33 -27 -613 0 c-337 0 -626 3
-642 6 -29 6 -117 78 -121 99 -13 64 -33 50 -28 -18 6 -66 20 -113 32 -108 5
2 17 -13 27 -33 17 -35 19 -36 75 -37 140 -2 1231 -11 1267 -9 55 1 105 49
105 100 0 31 9 73 36 168 4 13 2 22 -5 22 -6 0 -11 -10 -11 -23z"/>
<path d="M7680 5130 c0 -14 -7 -20 -22 -21 -22 -1 -22 -1 2 -8 l25 -8 -25 -5
c-25 -5 -25 -5 3 -7 25 -1 27 2 27 34 0 19 -2 35 -5 35 -3 0 -5 -9 -5 -20z"/>
<path d="M3813 4247 c13 -94 75 -171 156 -196 91 -27 155 -6 232 73 78 79 103
149 36 96 -56 -44 -167 -75 -234 -65 -32 5 -59 21 -119 72 l-77 66 6 -46z"/>
<path d="M6213 4274 c-8 -22 14 -90 44 -135 30 -45 105 -98 142 -100 60 -3
117 4 156 21 45 20 125 103 125 131 0 16 -7 15 -82 -12 -130 -45 -171 -38
-282 49 -74 58 -95 67 -103 46z"/>
<path d="M4541 7444 c0 -11 3 -14 6 -6 3 7 2 16 -1 19 -3 4 -6 -2 -5 -13z"/>
<path d="M5096 7415 c4 -8 7 -15 9 -15 2 0 5 7 9 15 3 9 0 15 -9 15 -9 0 -12
-6 -9 -15z"/>
<path d="M5344 7422 c4 -3 14 -7 22 -8 9 -1 13 0 10 4 -4 3 -14 7 -22 8 -9 1
-13 0 -10 -4z"/>
<path d="M2952 7400 c0 -14 2 -19 5 -12 2 6 2 18 0 25 -3 6 -5 1 -5 -13z"/>
<path d="M2613 7156 c4 -10 1 -16 -8 -16 -14 0 -31 -37 -22 -46 3 -3 14 0 25
7 16 10 23 10 35 0 9 -7 18 -8 21 -2 10 15 -3 38 -31 57 -24 15 -26 15 -20 0z"/>
<path d="M7942 6978 c-20 -20 -14 -54 13 -68 22 -12 27 -11 40 6 20 27 18 51
-4 64 -25 13 -34 13 -49 -2z m52 -33 c3 -8 2 -15 -2 -16 -4 0 -15 -2 -24 -4
-12 -2 -18 3 -18 16 0 23 35 26 44 4z"/>
<path d="M7940 6682 c-43 -21 -51 -57 -20 -90 27 -28 58 -28 93 2 31 26 36 49
10 39 -16 -6 -16 -5 -4 10 12 16 11 20 -7 37 -26 24 -28 24 -72 2z"/>
<path d="M2498 6652 c-4 -15 -11 -20 -22 -16 -9 3 -16 1 -16 -5 0 -6 9 -11 20
-11 22 0 35 20 28 42 -3 7 -7 2 -10 -10z"/>
<path d="M2310 6333 c0 -20 3 -24 9 -14 5 7 14 10 20 7 16 -10 14 3 -3 20 -21
20 -26 18 -26 -13z"/>
<path d="M2061 5214 c-29 -37 -26 -68 10 -98 35 -30 49 -32 88 -11 73 37 43
135 -41 135 -28 0 -42 -7 -57 -26z"/>
<path d="M2068 4863 c-51 -55 -60 -100 -33 -153 17 -32 61 -60 95 -60 64 0
120 61 120 130 0 42 -4 52 -35 79 -48 42 -109 44 -147 4z"/>
<path d="M2214 4401 c-18 -11 -35 -25 -39 -31 -8 -13 13 -71 29 -82 18 -13 65
-9 96 7 46 24 40 84 -11 110 -36 19 -38 19 -75 -4z"/>
<path d="M8255 4282 c-11 -11 -4 -43 10 -48 17 -7 45 12 45 31 0 13 -45 27
-55 17z"/>
<path d="M2280 4075 c-21 -25 3 -68 33 -59 40 12 50 47 18 64 -27 14 -36 13
-51 -5z"/>
<path d="M2488 3944 c-36 -19 -48 -43 -48 -94 0 -56 42 -100 95 -100 52 0 105
53 105 105 0 29 -8 45 -34 71 -38 38 -73 43 -118 18z"/>
<path d="M2775 3663 c-37 -20 -45 -31 -45 -66 0 -39 15 -64 49 -81 46 -24 90
-6 117 47 18 35 12 69 -18 97 -26 24 -62 25 -103 3z"/>
<path d="M7981 3616 c-7 -9 -24 -16 -38 -16 -14 0 -21 -4 -18 -10 15 -24 82 3
74 29 -4 10 -8 9 -18 -3z"/>
<path d="M2582 3334 c-25 -17 -29 -46 -7 -64 33 -27 73 8 61 53 -7 31 -22 34
-54 11z"/>
<path d="M3048 3084 c-24 -13 -28 -21 -28 -59 0 -35 5 -47 26 -64 36 -28 66
-26 103 5 38 32 40 62 5 103 -29 35 -62 39 -106 15z"/>
<path d="M7380 2969 c-23 -41 24 -64 68 -33 22 15 22 17 6 35 -23 25 -60 24
-74 -2z"/>
<path d="M3311 2927 c-94 -55 -43 -210 62 -190 43 8 87 58 87 99 0 70 -89 125
-149 91z"/>
<path d="M3107 2694 c-4 -4 -7 -20 -7 -36 0 -25 4 -28 30 -28 34 0 49 23 33
49 -11 17 -44 26 -56 15z"/>
<path d="M6786 2648 c-22 -31 -20 -54 6 -72 46 -33 118 -10 118 37 0 52 -94
78 -124 35z"/>
<path d="M6972 2644 c-40 -27 -23 -54 34 -54 29 0 40 21 24 49 -13 25 -28 26
-58 5z"/>
<path d="M4216 2375 c-32 -30 -33 -45 -3 -73 30 -28 38 -28 67 3 20 21 22 28
12 49 -19 42 -46 49 -76 21z"/>
<path d="M4851 1552 c-6 -2 -8 -9 -5 -16 2 -6 -3 -12 -13 -13 -10 0 -51 -2
-90 -3 -54 -2 -73 -6 -73 -16 0 -8 -4 -14 -10 -14 -8 0 -15 -39 -7 -40 1 -1
43 -3 92 -6 50 -3 105 -10 123 -16 21 -6 144 -10 310 -10 153 1 306 -3 342 -7
36 -5 52 -9 35 -10 -16 -1 -37 -6 -45 -11 -20 -13 70 -13 104 0 19 7 29 6 40
-5 12 -12 14 -12 19 4 4 15 19 20 83 25 137 12 134 11 134 64 0 26 -5 54 -10
62 -9 13 -10 13 -10 0 0 -13 -1 -13 -10 0 -6 10 -10 11 -10 3 0 -8 -12 -13
-27 -12 -25 0 -26 1 -8 9 14 6 -5 9 -60 11 -114 4 -893 5 -904 1z m-138 -89
c-7 -2 -19 -2 -25 0 -7 3 -2 5 12 5 14 0 19 -2 13 -5z"/>
<path d="M5900 1493 c0 -13 5 -23 10 -23 13 0 13 11 0 30 -8 12 -10 11 -10 -7z"/>
<path d="M5920 1501 c0 -6 4 -13 10 -16 6 -3 7 1 4 9 -7 18 -14 21 -14 7z"/>
</g>
</svg>
